:FULLY-SPECIFIED
:DEGREES
200
root 2.93813 16.5098 -2.04502 -74.9707 -86.8197 92.1841
lowerback -7.33321 -0.637658 -0.00815466
upperback -4.65933 -0.989844 -0.700003
thorax -0.708212 -0.56673 -0.779163
lowerneck -14.8339 -1.18222 1.08314
upperneck 19.4884 -2.26403 0.874942
head 8.51918 -0.96349 -0.158552
rclavicle 5.1684e-015 -1.78906e-015
rhumerus -38.4306 -7.01294 -79.8234
rradius 33.7431
rwrist 17.2086
rhand -25.6899 -5.80494
rfingers 7.12502
rthumb 0.845267 -35.783
lclavicle 5.1684e-015 -1.78906e-015
lhumerus -36.7409 -10.507 90.1939
lradius 39.118
lwrist -5.70196
lhand -39.2254 -2.89626
lfingers 7.12502
lthumb -12.221 26.7267
rfemur -35.2553 9.64101 19.1473
rtibia 27.1345
rfoot -8.54741 -19.717
rtoes -1.69034
lfemur -19.8696 -1.73222 -26.2468
ltibia 46.8658
lfoot -5.8149 -0.587419
ltoes -21.3891
201
root 2.95541 16.494 -2.06798 -70.8201 -87.1666 87.9058
lowerback -7.13875 -0.523378 0.381035
upperback -4.60909 -0.854951 -0.659885
thorax -0.766632 -0.50441 -0.945206
lowerneck -14.8222 -1.28054 1.07501
upperneck 19.3938 -2.39849 0.901522
head 8.48537 -1.02454 -0.163046
rclavicle 4.77083e-015 1.03368e-014
rhumerus -38.3416 -6.56475 -80.0245
rradius 34.0779
rwrist 16.8952
rhand -25.7219 -5.64961
rfingers 7.12502
rthumb 0.814333 -35.6278
lclavicle 4.77083e-015 1.03368e-014
lhumerus -36.9903 -10.5262 90.2364
lradius 38.9383
lwrist -5.67403
lhand -39.305 -2.79231
lfingers 7.12502
lthumb -12.2977 26.8261
rfemur -34.7479 9.34914 19.8903
rtibia 27.4577
rfoot -9.14074 -19.5622
rtoes -2.25767
lfemur -21.2707 -1.28886 -25.6084
ltibia 49.8369
lfoot -5.08852 -0.57591
ltoes -20.0688
202
root 2.97224 16.48 -2.08865 -66.3956 -87.3565 83.3128
lowerback -6.96318 -0.410926 0.686688
upperback -4.51919 -0.715446 -0.714868
thorax -0.772576 -0.438546 -1.16314
lowerneck -14.8114 -1.37346 1.03479
upperneck 19.3138 -2.55379 1.08619
head 8.45975 -1.08171 -0.111753
rclavicle -5.36719e-015 -1.43125e-014
rhumerus -38.1751 -6.2671 -80.2554
rradius 34.4112
rwrist 16.4128
rhand -25.6705 -5.81053
rfingers 7.12502
rthumb 0.863949 -35.7885
lclavicle -5.36719e-015 -1.43125e-014
lhumerus -37.1687 -10.438 90.1078
lradius 38.6898
lwrist -5.98276
lhand -39.2709 -2.78843
lfingers 7.12502
lthumb -12.2649 26.8319
rfemur -34.2261 8.93474 20.4973
rtibia 27.801
rfoot -9.62723 -19.3134
rtoes -2.92163
lfemur -22.6086 -0.952415 -25.1536
ltibia 52.6822
lfoot -4.78719 0.12628
ltoes -19.9681
203
root 2.99411 16.462 -2.11121 -61.0491 -87.641 77.932
lowerback -6.896 -0.286546 1.03385
upperback -4.45288 -0.564073 -0.716702
thorax -0.740998 -0.367406 -1.35047
lowerneck -14.8822 -1.44193 1.14032
upperneck 19.2793 -2.6698 1.07789
head 8.45954 -1.1285 -0.145694
rclavicle -2.5842e-015 6.75868e-015
rhumerus -37.9198 -5.77721 -80.5408
rradius 34.6591
rwrist 16.1264
rhand -25.7194 -5.98455
rfingers 7.12502
rthumb 0.816768 -35.9627
lclavicle -2.5842e-015 6.75868e-015
lhumerus -37.2825 -10.2825 89.9723
lradius 38.3907
lwrist -6.21582
lhand -39.3268 -2.90417
lfingers 7.12502
lthumb -12.3188 26.7129
rfemur -33.8909 8.65232 21.1547
rtibia 28.1699
rfoot -10.27 -19.1383
rtoes -2.75969
lfemur -24.1465 -0.556454 -24.5874
ltibia 55.4092
lfoot -4.67131 1.11827
ltoes -19.6384
204
root 3.01801 16.4443 -2.12941 -57.8592 -87.7591 74.6491
lowerback -6.74453 -0.172905 1.2119
upperback -4.39009 -0.416477 -0.745247
thorax -0.75703 -0.295156 -1.47006
lowerneck -14.8579 -1.50211 1.16204
upperneck 19.205 -2.75861 1.10016
head 8.43017 -1.16671 -0.15126
rclavicle -9.44227e-016 1.98785e-015
rhumerus -37.6471 -5.29426 -80.7111
rradius 34.7781
rwrist 16.1613
rhand -25.8302 -6.03505
rfingers 7.12502
rthumb 0.709733 -36.0136
lclavicle -9.44227e-016 1.98785e-015
lhumerus -37.3982 -9.96972 89.8246
lradius 38.0727
lwrist -6.55517
lhand -39.4124 -2.81083
lfingers 7.12502
lthumb -12.4013 26.8013
rfemur -33.5312 8.29725 21.6209
rtibia 28.5886
rfoot -10.8939 -18.9197
rtoes -3.23938
lfemur -25.5929 -0.229177 -24.2763
ltibia 57.9068
lfoot -5.02231 2.2637
ltoes -19.6007
205
root 3.04117 16.426 -2.14941 -53.4538 -87.8205 70.1755
lowerback -6.6585 -0.0893053 1.27683
upperback -4.32856 -0.303888 -0.745406
thorax -0.737608 -0.237799 -1.49977
lowerneck -14.7935 -1.54488 1.19185
upperneck 19.091 -2.82581 1.13487
head 8.38028 -1.19357 -0.150814
rclavicle 1.04362e-015 -8.54774e-015
rhumerus -37.3134 -4.88506 -80.8161
rradius 34.8633
rwrist 16.2632
rhand -25.8722 -6.11508
rfingers 7.12502
rthumb 0.669143 -36.0938
lclavicle 1.04362e-015 -8.54774e-015
lhumerus -37.5077 -9.56424 89.7082
lradius 37.7109
lwrist -6.55236
lhand -39.3717 -3.0015
lfingers 7.12502
lthumb -12.3621 26.613
rfemur -33.1771 7.96923 22.0308
rtibia 29.0145
rfoot -11.5837 -18.7777
rtoes -3.48622
lfemur -27.0465 0.0242366 -23.981
ltibia 60.162
lfoot -5.74689 3.02073
ltoes -18.4586
206
root 3.06753 16.4109 -2.17007 -50.2644 -87.8217 66.9517
lowerback -6.56612 -0.00617342 1.24745
upperback -4.29027 -0.187922 -0.763666
thorax -0.745028 -0.177935 -1.495
lowerneck -14.8237 -1.58942 1.21025
upperneck 19.1088 -2.90101 1.17397
head 8.39223 -1.22314 -0.149801
rclavicle 2.78299e-015 1.33186e-014
rhumerus -36.9382 -4.42491 -80.918
rradius 34.8706
rwrist 16.2001
rhand -25.888 -6.15852
rfingers 7.12502
rthumb 0.65394 -36.1373
lclavicle 2.78299e-015 1.33186e-014
lhumerus -37.6223 -8.98733 89.5064
lradius 37.3358
lwrist -6.89002
lhand -39.391 -3.06267
lfingers 7.12502
lthumb -12.3807 26.5507
rfemur -32.8772 7.74653 22.3235
rtibia 29.4178
rfoot -12.2273 -18.7336
rtoes -3.61704
lfemur -28.5207 0.197935 -23.7707
ltibia 62.1003
lfoot -6.34681 3.69749
ltoes -17.1436
207
root 3.09263 16.4005 -2.19037 -48.0052 -87.6721 64.655
lowerback -6.48023 0.0356173 1.06879
upperback -4.26488 -0.120419 -0.815017
thorax -0.763556 -0.140387 -1.44338
lowerneck -14.73 -1.61446 1.17244
upperneck 19.0611 -2.94935 1.29176
head 8.36195 -1.23796 -0.108487
rclavicle 8.94531e-016 0
rhumerus -36.5613 -4.09821 -80.9687
rradius 34.765
rwrist 16.7074
rhand -26.0916 -6.17863
rfingers 7.12502
rthumb 0.457278 -36.1579
lclavicle 8.94531e-016 0
lhumerus -37.7905 -8.47575 89.3065
lradius 36.9618
lwrist -7.27796
lhand -39.3911 -3.02447
lfingers 7.12502
lthumb -12.3808 26.5889
rfemur -32.5483 7.50428 22.4367
rtibia 29.7987
rfoot -13.148 -18.7346
rtoes -2.63262
lfemur -29.9276 0.211423 -23.7195
ltibia 63.7137
lfoot -6.82828 4.35153
ltoes -16.0149
208
root 3.11871 16.3906 -2.20994 -46.0022 -87.6012 62.6353
lowerback -6.42891 0.114705 0.974191
upperback -4.24737 -0.00858131 -0.871932
thorax -0.770164 -0.0825606 -1.4424
lowerneck -14.7344 -1.65821 1.18347
upperneck 19.1499 -3.03592 1.37582
head 8.39431 -1.26915 -0.0928619
rclavicle 2.38542e-015 -1.65985e-014
rhumerus -36.1694 -4.02699 -80.9263
rradius 34.6499
rwrist 17.3241
rhand -26.0632 -6.14178
rfingers 7.12502
rthumb 0.484722 -36.121
lclavicle 2.38542e-015 -1.65985e-014
lhumerus -37.9454 -7.88409 89.0399
lradius 36.57
lwrist -7.65215
lhand -39.2477 -3.02839
lfingers 7.12502
lthumb -12.2425 26.5933
rfemur -32.2345 7.35167 22.6141
rtibia 30.1233
rfoot -13.603 -18.7842
rtoes -3.50832
lfemur -31.2944 0.167452 -23.6134
ltibia 65.0162
lfoot -7.56697 4.91922
ltoes -15.8558
209
root 3.14695 16.3796 -2.22991 -43.6085 -87.5002 60.2172
lowerback -6.38814 0.174942 0.834553
upperback -4.21855 0.0806031 -0.91606
thorax -0.760156 -0.0347453 -1.40435
lowerneck -14.6962 -1.68721 1.22928
upperneck 19.2005 -3.09982 1.42161
head 8.40487 -1.29167 -0.0924719
rclavicle 2.98177e-015 2.78299e-015
rhumerus -35.7399 -3.99503 -80.8662
rradius 34.5692
rwrist 17.9096
rhand -25.9927 -6.28509
rfingers 7.12502
rthumb 0.552787 -36.2641
lclavicle 2.98177e-015 2.78299e-015
lhumerus -38.1228 -7.48735 88.8648
lradius 36.2533
lwrist -7.61556
lhand -39.2534 -3.24822
lfingers 7.12502
lthumb -12.248 26.3731
rfemur -31.8556 7.13371 22.7978
rtibia 30.3902
rfoot -14.1538 -18.8197
rtoes -3.85182
lfemur -32.633 0.0418138 -23.5081
ltibia 66.044
lfoot -8.27711 5.36801
ltoes -15.4688
210
root 3.17539 16.3729 -2.24644 -41.3019 -87.4645 57.9345
lowerback -6.40535 0.262554 0.812513
upperback -4.20512 0.19903 -0.960276
thorax -0.733103 0.0250009 -1.43078
lowerneck -14.6042 -1.73768 1.18033
upperneck 19.2342 -3.18386 1.53193
head 8.40267 -1.32479 -0.0564915
rclavicle 0 1.38155e-014
rhumerus -35.346 -3.90053 -80.8294
rradius 34.4963
rwrist 18.2051
rhand -26.0852 -6.12191
rfingers 7.12502
rthumb 0.463447 -36.1012
lclavicle 0 1.38155e-014
lhumerus -38.2799 -7.15974 88.7067
lradius 35.812
lwrist -7.75246
lhand -39.3307 -3.15053
lfingers 7.12502
lthumb -12.3226 26.4664
rfemur -31.5187 7.04355 22.991
rtibia 30.5817
rfoot -14.6049 -18.9313
rtoes -4.42193
lfemur -33.9883 -0.202107 -23.3594
ltibia 66.7791
lfoot -8.88866 5.7383
ltoes -15.2721
